<svg xmlns="http://www.w3.org/2000/svg" width="17" height="17" viewBox="0 0 17 17" fill="none">
  <g clip-path="url(#clip0_306_10)">
    <path d="M16.0483 -0.190918H-0.511689C-0.909939 -0.190918 -1.23169 0.112957 -1.23169 0.489082V16.1291C-1.23169 16.5052 -0.909939 16.8091 -0.511689 16.8091H16.0483C16.4466 16.8091 16.7683 16.5052 16.7683 16.1291V0.489082C16.7683 0.112957 16.4466 -0.190918 16.0483 -0.190918ZM13.9693 4.77096H12.5316C11.4043 4.77096 11.1861 5.27671 11.1861 6.02046V7.65883H13.8771L13.5261 10.2237H11.1861V16.8091H8.38031V10.2258H6.03356V7.65883H8.38031V5.76758C8.38031 3.57246 9.80006 2.37608 11.8746 2.37608C12.8691 2.37608 13.7218 2.44621 13.9716 2.47808V4.77096H13.9693Z" fill="#3B52A5"/>
  </g>
  <defs>
    <clipPath id="clip0_306_10">
      <rect x="0.654297" y="0.5" width="16" height="16" rx="8" fill="white"/>
    </clipPath>
  </defs>
</svg>