<svg xmlns="http://www.w3.org/2000/svg" width="17" height="17" viewBox="0 0 17 17" fill="none">
  <g clip-path="url(#clip0_306_14)">
    <path d="M8.6543 6.595C8.27755 6.59514 7.90931 6.70699 7.59613 6.9164C7.28295 7.12581 7.03889 7.42338 6.89482 7.77148C6.75074 8.11959 6.71312 8.5026 6.7867 8.87208C6.86029 9.24157 7.04178 9.58094 7.30823 9.84729C7.57467 10.1136 7.91411 10.295 8.28363 10.3684C8.65314 10.4419 9.03614 10.4041 9.38419 10.2599C9.73224 10.1157 10.0297 9.87155 10.239 9.55829C10.4483 9.24503 10.56 8.87674 10.56 8.5C10.5596 7.99476 10.3587 7.51032 10.0014 7.15313C9.64405 6.79593 9.15954 6.59519 8.6543 6.595ZM13.1082 5.13071C13.0112 4.88494 12.8648 4.66172 12.678 4.4749C12.4911 4.28807 12.2679 4.14162 12.0222 4.04464C11.2722 3.74857 9.48644 3.815 8.6543 3.815C7.82215 3.815 6.03823 3.74607 5.28608 4.04464C5.04031 4.14162 4.81709 4.28807 4.63026 4.4749C4.44344 4.66172 4.29699 4.88494 4.20001 5.13071C3.9043 5.88071 3.97037 7.66821 3.97037 8.49964C3.97037 9.33107 3.9043 11.1164 4.20144 11.8689C4.29842 12.1147 4.44487 12.3379 4.63169 12.5247C4.81852 12.7116 5.04174 12.858 5.28751 12.955C6.03751 13.2511 7.82323 13.1846 8.65573 13.1846C9.48823 13.1846 11.2714 13.2536 12.0236 12.955C12.2694 12.858 12.4926 12.7116 12.6794 12.5247C12.8662 12.3379 13.0127 12.1147 13.1097 11.8689C13.4079 11.1189 13.3393 9.33143 13.3393 8.5C13.3393 7.66857 13.4079 5.88357 13.1097 5.13107L13.1082 5.13071ZM8.6543 11.4286C8.07508 11.4286 7.50887 11.2568 7.02727 10.935C6.54567 10.6132 6.17031 10.1558 5.94865 9.62072C5.72699 9.08559 5.669 8.49675 5.782 7.92866C5.895 7.36058 6.17392 6.83876 6.58348 6.42919C6.99305 6.01962 7.51487 5.7407 8.08296 5.6277C8.65105 5.5147 9.23989 5.5727 9.77501 5.79435C10.3101 6.01601 10.7675 6.39137 11.0893 6.87297C11.4111 7.35457 11.5829 7.92078 11.5829 8.5C11.5833 8.88472 11.5079 9.26575 11.3609 9.62127C11.2139 9.97679 10.9982 10.2998 10.7262 10.5719C10.4541 10.8439 10.1311 11.0596 9.77557 11.2066C9.42005 11.3536 9.03901 11.429 8.6543 11.4286ZM11.7036 6.13214C11.5684 6.13221 11.4362 6.09218 11.3237 6.01711C11.2113 5.94205 11.1236 5.83531 11.0718 5.71041C11.02 5.58551 11.0064 5.44806 11.0327 5.31543C11.0591 5.18281 11.1242 5.06097 11.2197 4.96534C11.3153 4.8697 11.4371 4.80457 11.5697 4.77816C11.7023 4.75176 11.8398 4.76527 11.9647 4.817C12.0897 4.86873 12.1964 4.95634 12.2716 5.06876C12.3467 5.18118 12.3868 5.31336 12.3868 5.44857C12.3872 5.53836 12.3698 5.62734 12.3357 5.71041C12.3016 5.79348 12.2515 5.869 12.1881 5.93264C12.1248 5.99628 12.0495 6.04679 11.9666 6.08127C11.8837 6.11575 11.7948 6.13353 11.705 6.13357L11.7036 6.13214ZM14.94 0.5H2.36858C1.91393 0.5 1.47789 0.680612 1.1564 1.0021C0.834909 1.32359 0.654297 1.75963 0.654297 2.21429L0.654297 14.7857C0.654297 15.2404 0.834909 15.6764 1.1564 15.9979C1.47789 16.3194 1.91393 16.5 2.36858 16.5H14.94C15.3947 16.5 15.8307 16.3194 16.1522 15.9979C16.4737 15.6764 16.6543 15.2404 16.6543 14.7857V2.21429C16.6543 1.75963 16.4737 1.32359 16.1522 1.0021C15.8307 0.680612 15.3947 0.5 14.94 0.5ZM14.3286 10.8571C14.2825 11.7725 14.0736 12.5836 13.4054 13.25C12.7372 13.9164 11.9268 14.1296 11.0125 14.1732C10.0693 14.2264 7.24144 14.2264 6.29823 14.1732C5.38287 14.1271 4.57465 13.9179 3.90537 13.25C3.23608 12.5821 3.02573 11.7707 2.98215 10.8571C2.92894 9.91357 2.92894 7.08536 2.98215 6.14286C3.02823 5.2275 3.23465 4.41643 3.90537 3.75C4.57608 3.08357 5.38644 2.87286 6.29823 2.82929C7.24144 2.77607 10.0693 2.77607 11.0125 2.82929C11.9279 2.87536 12.7386 3.08464 13.4054 3.7525C14.0722 4.42036 14.285 5.23179 14.3286 6.14714C14.3818 7.08714 14.3818 9.91286 14.3286 10.8571Z" fill="url(#paint0_linear_306_14)"/>
  </g>
  <defs>
    <linearGradient id="paint0_linear_306_14" x1="15.4235" y1="1.79524" x2="2.01462" y2="15.3331" gradientUnits="userSpaceOnUse">
      <stop stop-color="#7420BC"/>
      <stop offset="1" stop-color="#F7CB53"/>
    </linearGradient>
    <clipPath id="clip0_306_14">
      <rect x="0.654297" y="0.5" width="16" height="16" rx="8" fill="white"/>
    </clipPath>
  </defs>
</svg>