<svg xmlns="http://www.w3.org/2000/svg" width="32" height="33" viewBox="0 0 32 33" fill="none">
  <g clip-path="url(#clip0_5_60)">
    <path d="M20.676 18.7631H19.6235L19.2505 18.4034C20.5561 16.8847 21.3421 14.913 21.3421 12.7681C21.3421 7.98541 17.4653 4.10864 12.6826 4.10864C7.89996 4.10864 4.02319 7.98541 4.02319 12.7681C4.02319 17.5508 7.89996 21.4275 12.6826 21.4275C14.8275 21.4275 16.7992 20.6415 18.3179 19.336L18.6776 19.709V20.7614L25.3388 27.4092L27.3238 25.4242L20.676 18.7631ZM12.6826 18.7631C9.36541 18.7631 6.68764 16.0853 6.68764 12.7681C6.68764 9.45086 9.36541 6.77309 12.6826 6.77309C15.9999 6.77309 18.6776 9.45086 18.6776 12.7681C18.6776 16.0853 15.9999 18.7631 12.6826 18.7631Z" fill="#8F8F8F"/>
  </g>
  <defs>
    <clipPath id="clip0_5_60">
      <rect width="31.9734" height="31.9734" fill="white" transform="translate(0.0266113 0.111938)"/>
    </clipPath>
  </defs>
</svg>