<svg xmlns="http://www.w3.org/2000/svg" width="17" height="17" viewBox="0 0 17 17" fill="none">
  <path d="M14.7683 4.11124C14.29 4.33209 13.7759 4.48135 13.2364 4.5485C13.7872 4.20482 14.21 3.6606 14.4091 3.01217C13.8856 3.33564 13.3128 3.56354 12.7155 3.68603C12.229 3.14636 11.5359 2.80908 10.7687 2.80908C9.29577 2.80908 8.10155 4.05244 8.10155 5.58597C8.10155 5.80365 8.12516 6.01556 8.17061 6.21886C5.95401 6.10301 3.98877 4.99749 2.67328 3.3174C2.44375 3.72754 2.31223 4.20461 2.31223 4.71346C2.31223 5.67691 2.78312 6.52684 3.49873 7.02485C3.07519 7.01104 2.66097 6.89193 2.29065 6.67748C2.29049 6.68911 2.29049 6.70074 2.29049 6.71243C2.29049 8.05788 3.20984 9.18027 4.42991 9.43538C4.03716 9.54659 3.62519 9.56287 3.22548 9.48297C3.56485 10.5862 4.54985 11.389 5.71691 11.4115C4.80412 12.1563 3.65407 12.6002 2.40455 12.6002C2.18924 12.6002 1.97697 12.5871 1.76831 12.5614C2.94862 13.3494 4.35054 13.8091 5.85671 13.8091C10.7625 13.8091 13.4452 9.57761 13.4452 5.90802C13.4452 5.78757 13.4426 5.66782 13.4374 5.54875C13.9596 5.15573 14.4103 4.66895 14.7683 4.11124Z" fill="#55ACEE"/>
</svg>